<svg id="Travel" height="512" viewBox="0 0 64 64" width="512" xmlns="http://www.w3.org/2000/svg"><rect fill="#64c1f7" height="22" rx="2" width="42" x="3" y="5"/><path d="m3 11h42a0 0 0 0 1 0 0v14a2 2 0 0 1 -2 2h-38a2 2 0 0 1 -2-2v-14a0 0 0 0 1 0 0z" fill="#b4e6ee"/><path d="m40.644 35h12.356v26h-50v-26h34.112z" fill="#64c37d"/><path d="m49 51v-6a6 6 0 0 1 -6-6h-30a6 6 0 0 1 -6 6v6a6 6 0 0 1 6 6h30a6 6 0 0 1 6-6z" fill="#a2dcb8"/><circle cx="28" cy="48" fill="#ffda44" r="9"/><rect fill="#cc8355" height="36" rx="1" width="30" x="31" y="25"/><circle cx="46" cy="38" fill="#fff" r="9"/><path d="" fill="none"/><path d="m57 19.065v5.935h-25l22.2-7.766a2 2 0 0 1 2.8 1.831z" fill="#7e543b"/><path d="m37 14h5v2h-5z" fill="#1a6fb0"/><path d="m37 18h5v2h-5z" fill="#1a6fb0"/><path d="m20.353 18.468-6.109-4.319-1.154 1.633 5.176 3.659-5.2 2.427-2.623-1.6-1.043 1.713 3.08 1.873a1 1 0 0 0 .943.052l11.782-5.494-.846-1.812z" fill="#ec455a"/><path d="m46 48a10 10 0 1 0 -10-10 10.011 10.011 0 0 0 10 10zm1-13.026a19.478 19.478 0 0 0 2.618-.3 13.843 13.843 0 0 1 .347 2.326h-2.965zm0-2v-2.674a5.335 5.335 0 0 1 1.969 2.461 17.729 17.729 0 0 1 -1.969.212zm-2 0a17.729 17.729 0 0 1 -1.969-.215 5.335 5.335 0 0 1 1.969-2.459zm0 2v2.026h-2.965a13.843 13.843 0 0 1 .347-2.326 19.478 19.478 0 0 0 2.618.3zm0 4.026v1.029a19.4 19.4 0 0 0 -2.811.334q-.106-.653-.154-1.363zm0 3.028v3.672a6.136 6.136 0 0 1 -2.332-3.4 17.633 17.633 0 0 1 2.332-.272zm2 3.672v-3.672a17.691 17.691 0 0 1 2.332.28 6.138 6.138 0 0 1 -2.332 3.392zm0-5.674v-1.026h2.965q-.047.709-.154 1.364a19.428 19.428 0 0 0 -2.811-.335zm4.971-1.026h1.96a7.932 7.932 0 0 1 -.736 2.474 11 11 0 0 0 -1.44-.6 16.515 16.515 0 0 0 .216-1.874zm0-2a16 16 0 0 0 -.41-2.811 11.878 11.878 0 0 0 1.2-.451 7.947 7.947 0 0 1 1.17 3.262zm-1.021-4.715c-.123-.3-.257-.583-.4-.856a8.256 8.256 0 0 1 .862.7c-.148.053-.304.105-.462.156zm-9.9 0c-.158-.051-.314-.1-.463-.159a8.256 8.256 0 0 1 .862-.7c-.142.274-.276.56-.399.859zm-.611 1.9a16 16 0 0 0 -.41 2.815h-1.96a7.947 7.947 0 0 1 1.173-3.262 11.878 11.878 0 0 0 1.197.451zm-.41 4.815a16.541 16.541 0 0 0 .216 1.872 10.813 10.813 0 0 0 -1.44.6 7.957 7.957 0 0 1 -.736-2.472zm-.129 4.165a8.816 8.816 0 0 1 .821-.339 11.518 11.518 0 0 0 .727 1.745 8.051 8.051 0 0 1 -1.548-1.406zm10.65 1.406a11.549 11.549 0 0 0 .727-1.744q.438.156.822.337a8.059 8.059 0 0 1 -1.548 1.407z" fill="#1a6fb0"/><path d="m38 51h16v2h-16z" fill="#1a6fb0"/><g fill="#365e7d"><path d="m33 5h2v2h-2z"/><path d="m33 15h2v3h-2z"/><path d="m33 20h2v3h-2z"/><path d="m33 9h2v4h-2z"/></g></svg>