<svg id="Travel" height="512" viewBox="0 0 64 64" width="512" xmlns="http://www.w3.org/2000/svg"><circle cx="51" cy="49" fill="#3e3d42" r="3"/><rect fill="#f7d880" height="36" rx="2" width="56" x="5" y="12"/><path d="m5 21h5a4 4 0 0 0 4-4v-5h-7a2.006 2.006 0 0 0 -2 2z" fill="#cc8355"/><path d="m61 14a2.006 2.006 0 0 0 -2-2h-7v5a4 4 0 0 0 4 4h5z" fill="#cc8355"/><path d="m61 39h-5a4 4 0 0 0 -4 4v5h7a2.006 2.006 0 0 0 2-2z" fill="#cc8355"/><rect fill="#cc8355" height="5" rx="1" width="18" x="24" y="3"/><rect fill="#64c1f7" height="22" rx="2" width="42" x="3" y="39"/><path d="m3 45h42a0 0 0 0 1 0 0v14a2 2 0 0 1 -2 2h-38a2 2 0 0 1 -2-2v-14a0 0 0 0 1 0 0z" fill="#b4e6ee"/><path d="m50.49 25.325-4.783 4.783a1 1 0 0 1 -1.656-.391l-2.391-7.174a1 1 0 0 1 1.265-1.265l7.175 2.391a1 1 0 0 1 .39 1.656z" fill="#5bcbfa"/><path d="m17 22h10v7h-10z" fill="#ed626f" transform="matrix(.707 -.707 .707 .707 -11.588 23.025)"/><circle cx="10" cy="17" fill="#b39a7c" r="1"/><circle cx="56" cy="17" fill="#b39a7c" r="1"/><circle cx="56" cy="43" fill="#b39a7c" r="1"/><path d="m37 48h5v2h-5z" fill="#1a6fb0"/><path d="m37 52h5v2h-5z" fill="#1a6fb0"/><path d="m37 56h5v2h-5z" fill="#1a6fb0"/><path d="m20.353 52.468-6.109-4.319-1.154 1.633 5.176 3.659-5.2 2.426-2.623-1.6-1.043 1.713 3.08 1.874a1 1 0 0 0 .943.052l11.782-5.494-.846-1.812z" fill="#ec455a"/><g fill="#365e7d"><path d="m33 39h2v2h-2z"/><path d="m33 49h2v3h-2z"/><path d="m33 54h2v3h-2z"/><path d="m33 59h2v2h-2z"/><path d="m33 43h2v4h-2z"/></g><path d="m26 8h2v4h-2z" fill="#3e3d42"/><path d="m38 8h2v4h-2z" fill="#3e3d42"/></svg>